<svg width="99" height="116" viewBox="0 0 99 116" fill="none" xmlns="http://www.w3.org/2000/svg">
<g filter="url(#filter0_d_2447_23295)">
<rect x="3" y="2" width="93.0969" height="110.419" rx="11.4797" fill="url(#paint0_linear_2447_23295)" fill-opacity="0.8" shape-rendering="crispEdges"/>
</g>
<path d="M40.7681 46.2513C39.1182 46.2513 37.7762 45.6857 36.77 44.5626C35.7637 43.4395 35.1033 41.773 34.7187 39.3482C34.1525 35.7748 34.7144 32.7629 36.3008 30.8678C37.2348 29.7517 38.4607 29.1064 39.8457 29.0025C41.0315 28.9125 42.804 29.3688 44.5159 32.049C45.5878 33.7274 46.4029 35.9569 46.7524 38.1656C47.1749 40.832 46.8604 42.7949 45.7907 44.1652C44.9413 45.2536 43.6351 45.928 41.9079 46.1731C41.5305 46.2257 41.1495 46.2518 40.7681 46.2513Z" fill="white"/>
<path d="M43.6261 55.5786C42.6621 55.5786 41.685 55.2857 40.805 54.7228C39.5351 53.9063 38.6561 52.6473 38.359 51.2193C38.151 50.2042 38.2758 49.3976 38.7399 48.7516C39.4937 47.7026 40.8466 47.4665 42.2783 47.2159C42.4293 47.1896 42.5826 47.1633 42.738 47.1349C43.0678 47.0753 43.405 46.9964 43.7319 46.9195C44.9563 46.6329 46.2231 46.3359 47.2688 47.0407C47.9686 47.5115 48.3633 48.3119 48.4816 49.4862C48.6158 50.8412 48.3093 52.1935 47.6183 53.2944C46.8747 54.4791 45.7597 55.2621 44.4806 55.5003C44.199 55.5525 43.9129 55.5787 43.6261 55.5786Z" fill="white"/>
<path d="M58.596 39.6014C58.2149 39.6002 57.8345 39.5724 57.4577 39.5183C55.7312 39.276 54.425 38.6009 53.5756 37.5104C52.5058 36.1401 52.1891 34.1779 52.6138 31.5108C52.9634 29.3 53.7763 27.0726 54.8431 25.4005C56.5462 22.7299 58.3209 22.2667 59.5133 22.3484C60.8939 22.444 62.1176 23.0803 63.0531 24.1902C64.6504 26.0853 65.2167 29.1062 64.6482 32.6955C64.2637 35.1189 63.6121 36.7771 62.597 37.9099C61.582 39.0426 60.2459 39.6014 58.596 39.6014Z" fill="white"/>
<path d="M55.7397 48.9305C55.4536 48.9304 55.1681 48.9042 54.8874 48.8522C53.606 48.6141 52.491 47.831 51.7496 46.6463C51.0586 45.5454 50.7521 44.1931 50.8863 42.8381C51.0031 41.6611 51.3971 40.8634 52.0991 40.3919C53.1448 39.6878 54.4116 39.9841 55.636 40.2714C55.9629 40.3476 56.3001 40.4265 56.6299 40.4868L57.0889 40.5678C58.5213 40.8177 59.8742 41.0525 60.628 42.1028C61.0921 42.7488 61.2169 43.5568 61.0089 44.5705C60.7121 45.9987 59.833 47.2581 58.5629 48.0747C57.6778 48.6383 56.7007 48.9305 55.7397 48.9305Z" fill="white"/>
<path d="M30.0131 77.0045C30.0131 77.4692 30.1855 77.8065 30.5303 78.0164C30.8751 78.2712 31.6096 78.5335 32.7339 78.8034C33.9182 79.0882 34.7802 79.478 35.3198 79.9726C35.8745 80.4673 36.1518 81.1794 36.1518 82.1088C36.1518 83.0832 35.7845 83.8702 35.05 84.4698C34.3304 85.0695 33.386 85.3693 32.2168 85.3693C30.5228 85.3693 28.9938 84.7697 27.6296 83.5704L28.7989 82.1763C29.9382 83.1507 31.0925 83.6379 32.2617 83.6379C32.8464 83.6379 33.3186 83.5104 33.6784 83.2556C34.0381 82.9858 34.218 82.641 34.218 82.2212C34.218 81.8015 34.0531 81.4717 33.7233 81.2319C33.4085 80.992 32.8389 80.7746 32.0144 80.5798C30.5903 80.25 29.6009 79.8602 29.0462 79.4105C28.4016 78.9158 28.0793 78.1588 28.0793 77.1394C28.0793 76.15 28.4391 75.378 29.1587 74.8233C29.8782 74.2537 30.8001 73.9689 31.9244 73.9689C33.4385 73.9689 34.7352 74.4111 35.8145 75.2955L34.8251 76.6897C34.4953 76.3899 34.0531 76.15 33.4985 75.9701C32.9438 75.7753 32.3966 75.6778 31.857 75.6778C31.3023 75.6778 30.8526 75.7977 30.5078 76.0376C30.178 76.2624 30.0131 76.5847 30.0131 77.0045ZM40.3663 78.2862V82.5361C40.3663 82.9408 40.4712 83.2631 40.6811 83.503C40.9059 83.7278 41.2058 83.8402 41.5805 83.8402C41.9253 83.8402 42.2851 83.6529 42.6599 83.2781L43.3794 84.5373C42.7498 85.092 42.0677 85.3693 41.3332 85.3693C40.5687 85.3693 39.9241 85.107 39.3994 84.5823C38.8747 84.0426 38.6124 83.3455 38.6124 82.4911V78.2862H37.5555V76.8696H38.6124V74.2387H40.3663V76.8696H42.5699V78.2862H40.3663ZM52.5696 81.8165H46.0036C46.0486 82.4161 46.3259 82.9033 46.8356 83.2781C47.3453 83.6529 47.9374 83.8402 48.612 83.8402C49.6764 83.8402 50.4709 83.5104 50.9955 82.8509L52.0074 83.9527C51.108 84.8971 49.9312 85.3693 48.4771 85.3693C47.2778 85.3693 46.2735 84.972 45.464 84.1775C44.6545 83.383 44.2497 82.3337 44.2497 81.0295C44.2497 79.7553 44.662 78.7209 45.4865 77.9264C46.3109 77.1319 47.3078 76.7347 48.4771 76.7347C49.6464 76.7347 50.6208 77.0869 51.4003 77.7915C52.1798 78.4961 52.5696 79.433 52.5696 80.6023V81.8165ZM50.8157 80.4224C50.8157 79.7478 50.5983 79.2156 50.1636 78.8259C49.7438 78.4361 49.1967 78.2412 48.5221 78.2412C47.8475 78.2412 47.2554 78.4436 46.7457 78.8483C46.251 79.2531 46.0036 79.7778 46.0036 80.4224H50.8157ZM63.0908 81.007C63.0908 82.2662 62.701 83.3081 61.9215 84.1326C61.142 84.957 60.2126 85.3693 59.1332 85.3693C58.0689 85.3693 57.117 84.9046 56.2775 83.9752V88.2925H54.5236V76.8696H56.2775V78.3312C56.9821 77.2668 57.889 76.7347 58.9983 76.7347C60.1526 76.7347 61.1195 77.1319 61.899 77.9264C62.6935 78.7209 63.0908 79.7478 63.0908 81.007ZM58.7285 83.7953C59.448 83.7953 60.0552 83.5404 60.5499 83.0307C61.0595 82.5061 61.3144 81.8465 61.3144 81.052C61.3144 80.2575 61.0595 79.5979 60.5499 79.0732C60.0552 78.5485 59.4555 78.2862 58.751 78.2862C58.0464 78.2862 57.4543 78.556 56.9746 79.0957C56.4949 79.6204 56.255 80.2725 56.255 81.052C56.255 81.8465 56.4949 82.5061 56.9746 83.0307C57.4543 83.5404 58.0389 83.7953 58.7285 83.7953ZM67.9667 85.3693C66.6176 85.3693 65.4033 84.9496 64.324 84.1101L65.1785 82.7384C66.1379 83.473 67.0823 83.8402 68.0117 83.8402C68.4015 83.8402 68.7088 83.7503 68.9336 83.5704C69.1735 83.3755 69.2934 83.1357 69.2934 82.8509C69.2934 82.4311 68.7388 82.0563 67.6294 81.7266C67.5995 81.7116 67.562 81.6966 67.517 81.6816C67.487 81.6666 67.4646 81.6591 67.4496 81.6591C65.7106 81.1944 64.8412 80.4074 64.8412 79.2981C64.8412 78.5185 65.1335 77.8964 65.7181 77.4317C66.3178 76.967 67.1048 76.7347 68.0792 76.7347C69.0386 76.7347 69.953 77.0195 70.8225 77.5891L70.1704 78.8933C69.4958 78.4436 68.7538 78.2187 67.9443 78.2187C66.9998 78.2187 66.5276 78.5185 66.5276 79.1182C66.5276 79.373 66.6176 79.5604 66.7975 79.6803C66.9923 79.7853 67.3071 79.8902 67.7419 79.9951C68.4015 80.175 68.9561 80.3549 69.4058 80.5348C69.7057 80.6697 69.968 80.8121 70.1929 80.962C70.7625 81.3518 71.0473 81.9439 71.0473 82.7384C71.0473 83.5179 70.755 84.155 70.1704 84.6497C69.6007 85.1294 68.8662 85.3693 67.9667 85.3693Z" fill="white"/>
<defs>
<filter id="filter0_d_2447_23295" x="0.704058" y="0.852029" width="97.6895" height="115.01" filterUnits="userSpaceOnUse" color-interpolation-filters="sRGB">
<feFlood flood-opacity="0" result="BackgroundImageFix"/>
<feColorMatrix in="SourceAlpha" type="matrix" values="0 0 0 0 0 0 0 0 0 0 0 0 0 0 0 0 0 0 127 0" result="hardAlpha"/>
<feOffset dy="1.14797"/>
<feGaussianBlur stdDeviation="1.14797"/>
<feComposite in2="hardAlpha" operator="out"/>
<feColorMatrix type="matrix" values="0 0 0 0 0 0 0 0 0 0 0 0 0 0 0 0 0 0 0.15 0"/>
<feBlend mode="normal" in2="BackgroundImageFix" result="effect1_dropShadow_2447_23295"/>
<feBlend mode="normal" in="SourceGraphic" in2="effect1_dropShadow_2447_23295" result="shape"/>
</filter>
<linearGradient id="paint0_linear_2447_23295" x1="96.0969" y1="2" x2="22.7207" y2="117.022" gradientUnits="userSpaceOnUse">
<stop offset="0.458615" stop-color="#FF6C6C" stop-opacity="0.99"/>
<stop offset="1" stop-color="#FF5C00" stop-opacity="0.52"/>
</linearGradient>
</defs>
</svg>
