<svg width="6" height="18" viewBox="0 0 6 18" fill="none" xmlns="http://www.w3.org/2000/svg">
<path d="M2.97809 0C1.60225 0 0.476562 0.9 0.476562 2C0.476562 3.1 1.60225 4 2.97809 4C4.35393 4 5.47962 3.1 5.47962 2C5.47962 0.9 4.35393 0 2.97809 0ZM2.97809 14C1.60225 14 0.476562 14.9 0.476562 16C0.476562 17.1 1.60225 18 2.97809 18C4.35393 18 5.47962 17.1 5.47962 16C5.47962 14.9 4.35393 14 2.97809 14ZM2.97809 7C1.60225 7 0.476562 7.9 0.476562 9C0.476562 10.1 1.60225 11 2.97809 11C4.35393 11 5.47962 10.1 5.47962 9C5.47962 7.9 4.35393 7 2.97809 7Z" fill="black"/>
</svg>
