<svg width="90" height="90" viewBox="0 0 90 90" fill="none" xmlns="http://www.w3.org/2000/svg">
<path d="M72.5977 18.9844H61.5234V21.9727H66.6661C67.4427 21.9727 68.0273 22.6758 68.0273 23.4519V75.3249C68.0273 76.1017 67.4427 76.8162 66.6661 76.8162H23.3339C22.5573 76.8162 21.9727 76.1017 21.9727 75.3249V23.4519C21.9727 22.6758 22.5573 21.9727 23.3339 21.9727H28.3008V18.9844H17.4023V82.0898H72.5977V18.9844Z" fill="#0177FD"/>
<path d="M58.7109 18.4816C58.7109 16.1627 57.0022 14.4141 54.7365 14.4141H49.9219V11.8441C49.9219 9.60135 48.186 7.91016 45.8842 7.91016H44.2002C41.8305 7.91016 39.9023 9.675 39.9023 11.8441V14.4141H35.3496C33.0138 14.4141 31.1133 16.2388 31.1133 18.4816V24.7852H58.7109V18.4816ZM28.3008 24.7852H24.7852V74.0039H65.2148V24.7852H61.5234V27.5977H28.3008V24.7852ZM38.0995 38.3203H48.3848C48.7578 38.3203 49.1155 38.4685 49.3792 38.7322C49.6429 38.9959 49.7911 39.3536 49.7911 39.7266C49.7911 40.0995 49.6429 40.4572 49.3792 40.7209C49.1155 40.9847 48.7578 41.1328 48.3848 41.1328H38.0995C37.7266 41.1328 37.3689 40.9847 37.1052 40.7209C36.8414 40.4572 36.6933 40.0995 36.6933 39.7266C36.6933 39.3536 36.8414 38.9959 37.1052 38.7322C37.3689 38.4685 37.7266 38.3203 38.0995 38.3203ZM38.0995 45.3516H58.9317C59.3047 45.3516 59.6624 45.4997 59.9261 45.7634C60.1898 46.0272 60.338 46.3849 60.338 46.7578C60.338 47.1308 60.1898 47.4885 59.9261 47.7522C59.6624 48.0159 59.3047 48.1641 58.9317 48.1641H38.0995C37.7266 48.1641 37.3689 48.0159 37.1052 47.7522C36.8414 47.4885 36.6933 47.1308 36.6933 46.7578C36.6933 46.3849 36.8414 46.0272 37.1052 45.7634C37.3689 45.4997 37.7266 45.3516 38.0995 45.3516ZM38.0995 52.3828H58.9317C59.3047 52.3828 59.6624 52.531 59.9261 52.7947C60.1898 53.0584 60.338 53.4161 60.338 53.7891C60.338 54.162 60.1898 54.5197 59.9261 54.7834C59.6624 55.0472 59.3047 55.1953 58.9317 55.1953H38.0995C37.7266 55.1953 37.3689 55.0472 37.1052 54.7834C36.8414 54.5197 36.6933 54.162 36.6933 53.7891C36.6933 53.4161 36.8414 53.0584 37.1052 52.7947C37.3689 52.531 37.7266 52.3828 38.0995 52.3828ZM38.0995 59.4141H58.9317C59.3047 59.4141 59.6624 59.5622 59.9261 59.8259C60.1898 60.0897 60.338 60.4474 60.338 60.8203C60.338 61.1933 60.1898 61.551 59.9261 61.8147C59.6624 62.0784 59.3047 62.2266 58.9317 62.2266H38.0995C37.7266 62.2266 37.3689 62.0784 37.1052 61.8147C36.8414 61.551 36.6933 61.1933 36.6933 60.8203C36.6933 60.4474 36.8414 60.0897 37.1052 59.8259C37.3689 59.5622 37.7266 59.4141 38.0995 59.4141ZM31.0683 38.3203H33.0469C33.4198 38.3203 33.7775 38.4685 34.0412 38.7322C34.305 38.9959 34.4531 39.3536 34.4531 39.7266C34.4531 40.0995 34.305 40.4572 34.0412 40.7209C33.7775 40.9847 33.4198 41.1328 33.0469 41.1328H31.0683C30.6953 41.1328 30.3376 40.9847 30.0739 40.7209C29.8102 40.4572 29.662 40.0995 29.662 39.7266C29.662 39.3536 29.8102 38.9959 30.0739 38.7322C30.3376 38.4685 30.6953 38.3203 31.0683 38.3203ZM31.0683 45.3516H33.0469C33.4198 45.3516 33.7775 45.4997 34.0412 45.7634C34.305 46.0272 34.4531 46.3849 34.4531 46.7578C34.4531 47.1308 34.305 47.4885 34.0412 47.7522C33.7775 48.0159 33.4198 48.1641 33.0469 48.1641H31.0683C30.6953 48.1641 30.3376 48.0159 30.0739 47.7522C29.8102 47.4885 29.662 47.1308 29.662 46.7578C29.662 46.3849 29.8102 46.0272 30.0739 45.7634C30.3376 45.4997 30.6953 45.3516 31.0683 45.3516ZM31.0683 52.3828H33.0469C33.4198 52.3828 33.7775 52.531 34.0412 52.7947C34.305 53.0584 34.4531 53.4161 34.4531 53.7891C34.4531 54.162 34.305 54.5197 34.0412 54.7834C33.7775 55.0472 33.4198 55.1953 33.0469 55.1953H31.0683C30.6953 55.1953 30.3376 55.0472 30.0739 54.7834C29.8102 54.5197 29.662 54.162 29.662 53.7891C29.662 53.4161 29.8102 53.0584 30.0739 52.7947C30.3376 52.531 30.6953 52.3828 31.0683 52.3828ZM31.0683 59.4141H33.0469C33.4198 59.4141 33.7775 59.5622 34.0412 59.8259C34.305 60.0897 34.4531 60.4474 34.4531 60.8203C34.4531 61.1933 34.305 61.551 34.0412 61.8147C33.7775 62.0784 33.4198 62.2266 33.0469 62.2266H31.0683C30.6953 62.2266 30.3376 62.0784 30.0739 61.8147C29.8102 61.551 29.662 61.1933 29.662 60.8203C29.662 60.4474 29.8102 60.0897 30.0739 59.8259C30.3376 59.5622 30.6953 59.4141 31.0683 59.4141Z" fill="#0177FD"/>
</svg>
