<svg width="21" height="19" viewBox="0 0 21 19" fill="none" xmlns="http://www.w3.org/2000/svg">
<path d="M5.23625 13.4065C4.35198 13.4065 3.63275 13.1033 3.09342 12.5014C2.5541 11.8995 2.20016 11.0062 1.99405 9.70667C1.69056 7.79146 1.9917 6.1772 2.84195 5.16151C3.34255 4.56331 3.9996 4.21745 4.7419 4.16179C5.37743 4.11354 6.32741 4.35809 7.24492 5.7946C7.81944 6.69413 8.2563 7.88905 8.44363 9.07284C8.67008 10.5019 8.50152 11.554 7.92817 12.2884C7.47293 12.8717 6.77287 13.2332 5.84714 13.3645C5.64487 13.3927 5.44069 13.4068 5.23625 13.4065Z" fill="#FF8B8B"/>
<path d="M6.76766 18.4069C6.25102 18.4069 5.72734 18.2499 5.25568 17.9482C4.57506 17.5106 4.10395 16.8358 3.94472 16.0705C3.83326 15.5265 3.90013 15.0941 4.14887 14.7479C4.55287 14.1857 5.27797 14.0592 6.0453 13.9248C6.12626 13.9107 6.20839 13.8966 6.29169 13.8814C6.46847 13.8495 6.64915 13.8072 6.82436 13.766C7.48062 13.6124 8.15957 13.4532 8.72001 13.8309C9.09507 14.0833 9.30665 14.5123 9.37001 15.1416C9.44197 15.8679 9.27771 16.5926 8.90735 17.1826C8.50882 17.8176 7.91122 18.2373 7.22563 18.365C7.07475 18.3929 6.92138 18.4069 6.76766 18.4069Z" fill="#FF8B8B"/>
<path d="M14.7902 9.84526C14.5859 9.84461 14.382 9.82973 14.1801 9.80073C13.2547 9.67085 12.5547 9.30903 12.0994 8.72456C11.5261 7.99017 11.3564 6.93849 11.584 5.50903C11.7713 4.32413 12.207 3.13032 12.7788 2.23413C13.6916 0.802824 14.6427 0.554562 15.2818 0.598351C16.0218 0.649562 16.6776 0.990597 17.179 1.58546C18.0351 2.60114 18.3386 4.22023 18.0339 6.14398C17.8278 7.4428 17.4786 8.33157 16.9346 8.93868C16.3906 9.54579 15.6745 9.84526 14.7902 9.84526Z" fill="#FF8B8B"/>
<path d="M13.2603 14.8446C13.107 14.8446 12.954 14.8305 12.8035 14.8026C12.1167 14.675 11.5191 14.2553 11.1218 13.6203C10.7514 13.0303 10.5872 12.3055 10.6591 11.5793C10.7217 10.9485 10.9329 10.521 11.3091 10.2682C11.8696 9.89084 12.5485 10.0497 13.2048 10.2037C13.38 10.2445 13.5607 10.2868 13.7374 10.3191L13.9834 10.3625C14.7512 10.4965 15.4763 10.6223 15.8803 11.1852C16.129 11.5314 16.1959 11.9645 16.0844 12.5078C15.9253 13.2733 15.4542 13.9482 14.7735 14.3859C14.2991 14.688 13.7754 14.8446 13.2603 14.8446Z" fill="#FF8B8B"/>
</svg>
